<?xml version="1.0" encoding="UTF-8" standalone="no"?>
<svg
   inkscape:export-ydpi="96"
   inkscape:export-xdpi="96"
   inkscape:export-filename="firebase_fill_2.png"
   inkscape:version="1.2.2 (732a01da63, 2022-12-09)"
   sodipodi:docname="firebase_2.svg"
   id="svg964"
   version="1.1"
   viewBox="0 0 24 24"
   xmlns:inkscape="http://www.inkscape.org/namespaces/inkscape"
   xmlns:sodipodi="http://sodipodi.sourceforge.net/DTD/sodipodi-0.dtd"
   xmlns="http://www.w3.org/2000/svg"
   xmlns:svg="http://www.w3.org/2000/svg">
  <defs
     id="defs968" />
  <sodipodi:namedview
     id="namedview966"
     pagecolor="#ffffff"
     bordercolor="#999999"
     borderopacity="1"
     inkscape:showpageshadow="0"
     inkscape:pageopacity="0"
     inkscape:pagecheckerboard="0"
     inkscape:deskcolor="#d1d1d1"
     showgrid="false"
     inkscape:zoom="16.75"
     inkscape:cx="6.7164179"
     inkscape:cy="10.059701"
     inkscape:window-width="1920"
     inkscape:window-height="991"
     inkscape:window-x="-9"
     inkscape:window-y="-9"
     inkscape:window-maximized="1"
     inkscape:current-layer="svg964" />
  <path
     fill="#53d86a"
     d="m14.714 8.669-2.4 2.235-2.228-4.496 1.151-2.585c.291-.516.767-.522 1.058 0l2.419 4.846z"
     class="colorffa000 svgShape"
     id="path956"
     style="fill:#baa0e4;fill-opacity:1" />
  <path
     fill="#fe9526"
     d="m12.314 10.903-8.979 8.351 6.751-12.846 2.228 4.495z"
     class="colorf57f17 svgShape"
     id="path958"
     style="fill:#ab8bd5;fill-opacity:1" />
  <path
     fill="#595bd4"
     d="M17.346 5.251c.43-.41.873-.271.985.31l2.334 13.58-7.742 4.648c-.272.152-.992.211-.992.211s-.655-.08-.906-.218l-7.689-4.528 14.01-14.003z"
     class="colorffca28 svgShape"
     id="path960"
     style="fill:#c6b0e8;fill-opacity:1" />
  <path
     fill="#53d86a"
     d="m10.086 6.408-6.75 12.846L6.344.477c.113-.582.443-.641.74-.126l3.002 6.057z"
     class="colorffa000 svgShape"
     id="path962"
     style="fill:#baa0e4;fill-opacity:1" />
  <rect
     style="fill:#bfade4;fill-opacity:1"
     id="rect20392"
     width="3.5460877"
     height="3.2505803"
     x="-8.8652191"
     y="1.1820292" />
  <rect
     style="fill:#baa0e4;fill-opacity:1"
     id="rect20394"
     width="3.8415949"
     height="3.2505803"
     x="-8.9496498"
     y="7.0077448" />
  <rect
     style="fill:#ab8bd5;fill-opacity:1"
     id="rect20396"
     width="4.0104566"
     height="3.7571645"
     x="-8.9496498"
     y="11.989154" />
  <path
     fill="#53d86a"
     d="m -62.48003,-28.166673 -2.4,2.235 -2.228,-4.496 1.151,-2.585 c 0.291,-0.516 0.767,-0.522 1.058,0 z"
     class="colorffa000 svgShape"
     id="path956-4"
     style="fill:#bfade4;fill-opacity:1" />
  <path
     fill="#fe9526"
     d="m -64.88003,-25.932673 -8.979,8.351 6.751,-12.846 z"
     class="colorf57f17 svgShape"
     id="path958-6"
     style="fill:#baa0e4;fill-opacity:1" />
  <path
     fill="#595bd4"
     d="m -59.84803,-31.584673 c 0.43,-0.41 0.873,-0.271 0.985,0.31 l 2.334,13.58 -7.742,4.648 c -0.272,0.152 -0.992,0.211 -0.992,0.211 0,0 -0.655,-0.08 -0.906,-0.218 l -7.689,-4.528 z"
     class="colorffca28 svgShape"
     id="path960-8"
     style="fill:#ab8bd5;fill-opacity:1" />
  <path
     fill="#53d86a"
     d="m -67.10803,-30.427673 -6.75,12.846 3.008,-18.777 c 0.113,-0.582 0.443,-0.641 0.74,-0.126 z"
     class="colorffa000 svgShape"
     id="path962-3"
     style="fill:#bfade4;fill-opacity:1" />
</svg>
