<?xml version="1.0" encoding="UTF-8" standalone="no"?>
<svg
   viewBox="0 0 24 24"
   version="1.1"
   id="svg964"
   sodipodi:docname="firebase (1).svg"
   inkscape:version="1.2.2 (732a01da63, 2022-12-09)"
   xmlns:inkscape="http://www.inkscape.org/namespaces/inkscape"
   xmlns:sodipodi="http://sodipodi.sourceforge.net/DTD/sodipodi-0.dtd"
   xmlns="http://www.w3.org/2000/svg"
   xmlns:svg="http://www.w3.org/2000/svg">
  <defs
     id="defs968" />
  <sodipodi:namedview
     id="namedview966"
     pagecolor="#ffffff"
     bordercolor="#999999"
     borderopacity="1"
     inkscape:showpageshadow="0"
     inkscape:pageopacity="0"
     inkscape:pagecheckerboard="0"
     inkscape:deskcolor="#d1d1d1"
     showgrid="false"
     inkscape:zoom="23.688077"
     inkscape:cx="8.6752504"
     inkscape:cy="11.20817"
     inkscape:window-width="1920"
     inkscape:window-height="991"
     inkscape:window-x="-9"
     inkscape:window-y="-9"
     inkscape:window-maximized="1"
     inkscape:current-layer="svg964" />
  <path
     fill="#53d86a"
     d="m14.714 8.669-2.4 2.235-2.228-4.496 1.151-2.585c.291-.516.767-.522 1.058 0l2.419 4.846z"
     class="colorffa000 svgShape"
     id="path956"
     style="fill:#bfade4;fill-opacity:1" />
  <path
     fill="#fe9526"
     d="m12.314 10.903-8.979 8.351 6.751-12.846 2.228 4.495z"
     class="colorf57f17 svgShape"
     id="path958"
     style="fill:#baa0e4;fill-opacity:1" />
  <path
     fill="#595bd4"
     d="M17.346 5.251c.43-.41.873-.271.985.31l2.334 13.58-7.742 4.648c-.272.152-.992.211-.992.211s-.655-.08-.906-.218l-7.689-4.528 14.01-14.003z"
     class="colorffca28 svgShape"
     id="path960"
     style="fill:#ab8bd5;fill-opacity:1" />
  <path
     fill="#53d86a"
     d="m10.086 6.408-6.75 12.846L6.344.477c.113-.582.443-.641.74-.126l3.002 6.057z"
     class="colorffa000 svgShape"
     id="path962"
     style="fill:#bfade4;fill-opacity:1" />
</svg>
